# xmcd
#
# Track frame offsets: 
#        150
#        22625
#        45985
#        73475
#        94917
#        120337
#        149047
#        179695
#        208607
#        233000
#
# Disc length: 3425 seconds
#
# Revision: 3
# Processed by: cddbd v1.5.2PL0 Copyright (c) Steve Scherf et al.
# Submitted via: ExactAudioCopy v0.99pb5
#
DISCID=8a0d5f0a
DTITLE=Various Artist - Nhac Yeu Cau 3
DYEAR=1900
DGENRE=Ethnic
TTITLE0=Nho nhau hoai
TTITLE1=Hoa rung ven song
TTITLE2=Trang tan tren he pho
TTITLE3=Qua con me
TTITLE4=Mua dong cua anh
TTITLE5=Chuyen tinh nguoi dan ao
TTITLE6=Neu hai dua minh
TTITLE7=Toi dua em sang song
TTITLE8=Chuyen tinh buon
TTITLE9=Tuong tu
EXTD=ID3G:  48
EXTT0=
EXTT1=
EXTT2=
EXTT3=
EXTT4=
EXTT5=
EXTT6=
EXTT7=
EXTT8=
EXTT9=
PLAYORDER=
